<svg width="47" height="47" viewBox="0 0 47 47" fill="none" xmlns="http://www.w3.org/2000/svg">
<path d="M19.8085 42.7131C20.9953 43.6923 22.233 44.5873 23.5 45.4607C24.7698 44.5988 26.0014 43.6821 27.1915 42.7131C29.1753 41.0842 31.0422 39.318 32.7786 37.4276C36.7814 33.0507 41.125 26.7057 41.125 19.5833C41.125 17.2687 40.6691 14.9768 39.7834 12.8385C38.8976 10.7001 37.5994 8.75713 35.9628 7.12049C34.3261 5.48386 32.3832 4.18561 30.2448 3.29988C28.1064 2.41414 25.8145 1.95825 23.5 1.95825C21.1855 1.95825 18.8936 2.41414 16.7552 3.29988C14.6168 4.18561 12.6739 5.48386 11.0372 7.12049C9.40061 8.75713 8.10236 10.7001 7.21662 12.8385C6.33088 14.9768 5.875 17.2687 5.875 19.5833C5.875 26.7057 10.2186 33.0488 14.2214 37.4276C15.9577 39.3187 17.8247 41.0836 19.8085 42.7131ZM23.5 25.9478C21.812 25.9478 20.1932 25.2773 18.9996 24.0837C17.806 22.8901 17.1354 21.2712 17.1354 19.5833C17.1354 17.8953 17.806 16.2764 18.9996 15.0828C20.1932 13.8892 21.812 13.2187 23.5 13.2187C25.188 13.2187 26.8068 13.8892 28.0004 15.0828C29.194 16.2764 29.8646 17.8953 29.8646 19.5833C29.8646 21.2712 29.194 22.8901 28.0004 24.0837C26.8068 25.2773 25.188 25.9478 23.5 25.9478Z" fill="#0084FF"/>
<rect x="16.0791" y="12.3684" width="14.8421" height="14.8421" rx="7.42105" fill="#0084FF"/>
<path d="M23.5 7C16.6075 7 11 12.8318 11 20C11 27.1681 16.6075 33 23.5 33C30.3925 33 36 27.1682 36 20C36 12.8317 30.3925 7 23.5 7ZM12.4789 20.0699C12.5953 17.6603 13.4872 15.6474 15.212 13.9049C16.4161 12.6881 19.5882 10.7205 21.6912 10.9988C21.9865 11.0378 24.2266 11.5148 23.4686 13.9115C23.1061 15.0581 22.0601 15.989 20.6467 17.4709C19.3874 18.7915 18.037 20.1212 17.0357 21.6736C15.7397 23.6825 16.6841 25.3496 18.0277 27.0125C18.0361 27.0225 18.0513 27.0122 18.0451 26.9993C17.6526 26.2435 17.5537 25.3263 17.7816 24.4989C18.1237 23.2573 19.1132 22.3446 20.0598 21.5074C22.0141 19.7807 23.9813 18.0683 25.9605 16.3725C26.8324 15.626 27.7285 14.855 28.2598 13.8188C29.2638 11.8603 28.1701 9.80565 26.3917 8.93926C31.0465 10.2571 34.4848 14.6731 34.5209 19.9171C34.4069 22.3325 33.5149 24.3495 31.787 26.0951C30.583 27.3119 27.4109 29.2795 25.3079 29.0012C25.0126 28.9622 22.7725 28.4852 23.5304 26.0885C23.893 24.9419 24.9391 24.011 26.3524 22.5291C27.6116 21.2085 28.9622 19.8788 29.9634 18.3263C31.2594 16.3175 30.315 14.6504 28.9714 12.9875C28.963 12.9775 28.9478 12.9878 28.954 13.0007C29.3466 13.7565 29.4454 14.6737 29.2175 15.5011C28.8754 16.7427 27.8859 17.6554 26.9393 18.4925C24.985 20.2193 23.0178 21.9317 21.0386 23.6275C20.1668 24.374 19.2706 25.145 18.7393 26.1812C17.7355 28.1392 18.8285 30.1933 20.6061 31.0601C15.9486 29.7404 12.5093 25.3188 12.4789 20.0699Z" fill="white"/>
</svg>
